<svg xmlns="http://www.w3.org/2000/svg" width="286.538" height="56.635" viewBox="0 0 286.538 56.635">
  <g id="alesha_tech_logo" transform="translate(-363.119 -25)">
    <g id="Group_123" data-name="Group 123" transform="translate(427.551 45.044)">
      <path id="Path_71" data-name="Path 71" d="M46.557,33.8l-.823-2.168H38.706l-.827,2.215a7.691,7.691,0,0,1-.827,1.752,1.3,1.3,0,0,1-1.121.452,1.669,1.669,0,0,1-1.166-.475,1.493,1.493,0,0,1-.508-1.1,2.477,2.477,0,0,1,.117-.73c.081-.255.212-.608.391-1.054L39.19,21.459c.122-.314.276-.707.454-1.16a5.913,5.913,0,0,1,.565-1.121A2.281,2.281,0,0,1,41,18.446a2.4,2.4,0,0,1,1.207-.276,2.451,2.451,0,0,1,1.221.276,2.313,2.313,0,0,1,.787.716,4.545,4.545,0,0,1,.508.938c.138.33.316.777.527,1.336L49.765,32.6a5.592,5.592,0,0,1,.529,1.853,1.535,1.535,0,0,1-.5,1.1,1.639,1.639,0,0,1-1.211.5,1.539,1.539,0,0,1-.707-.145,1.484,1.484,0,0,1-.5-.4,3.6,3.6,0,0,1-.43-.777c-.154-.353-.283-.66-.395-.929M39.624,29h5.161l-2.6-7.132Z" transform="translate(-34.258 -18.17)" fill="#006ab2"/>
      <path id="Path_72" data-name="Path 72" d="M48.1,20.3V32.872h7.1a1.872,1.872,0,0,1,1.3.416,1.344,1.344,0,0,1,.454,1.037,1.3,1.3,0,0,1-.45,1.031,1.879,1.879,0,0,1-1.307.4H46.74A1.83,1.83,0,0,1,44.6,33.611V20.3a2.315,2.315,0,0,1,.477-1.6,1.621,1.621,0,0,1,1.257-.531,1.661,1.661,0,0,1,1.279.531,2.243,2.243,0,0,1,.488,1.6" transform="translate(-26.057 -18.17)" fill="#006ab2"/>
      <path id="Path_73" data-name="Path 73" d="M64.165,21.039H56.274V25.28h7.263a1.756,1.756,0,0,1,1.2.36,1.344,1.344,0,0,1,0,1.906,1.644,1.644,0,0,1-1.2.377H56.274v4.919h8.16a1.749,1.749,0,0,1,1.245.386,1.3,1.3,0,0,1,.418,1.013,1.276,1.276,0,0,1-.418,1,1.749,1.749,0,0,1-1.245.384H54.918a1.84,1.84,0,0,1-2.152-2.15v-13A2.843,2.843,0,0,1,53,19.255a1.392,1.392,0,0,1,.7-.7,2.949,2.949,0,0,1,1.221-.222h9.247a1.814,1.814,0,0,1,1.245.377,1.381,1.381,0,0,1,0,1.951,1.77,1.77,0,0,1-1.245.378" transform="translate(-19.574 -18.041)" fill="#006ab2"/>
      <path id="Path_74" data-name="Path 74" d="M75.154,30.568a5.106,5.106,0,0,1-.807,2.821A5.344,5.344,0,0,1,71.98,35.34a8.765,8.765,0,0,1-3.689.707,8.307,8.307,0,0,1-4.223-.968,5.516,5.516,0,0,1-1.914-1.853,4.22,4.22,0,0,1-.737-2.26,1.489,1.489,0,0,1,.441-1.09,1.516,1.516,0,0,1,1.126-.454,1.325,1.325,0,0,1,.938.353,2.786,2.786,0,0,1,.653,1.046,6.769,6.769,0,0,0,.714,1.383,2.842,2.842,0,0,0,1.081.916,3.976,3.976,0,0,0,1.82.36,4.141,4.141,0,0,0,2.538-.723,2.2,2.2,0,0,0,.972-1.813,1.918,1.918,0,0,0-.527-1.4,3.41,3.41,0,0,0-1.356-.823c-.554-.185-1.3-.384-2.222-.6a15.832,15.832,0,0,1-3.12-1.022A4.977,4.977,0,0,1,62.48,25.51,4.145,4.145,0,0,1,61.747,23a4.278,4.278,0,0,1,.777-2.529,4.895,4.895,0,0,1,2.251-1.707,9.187,9.187,0,0,1,3.47-.6A8.872,8.872,0,0,1,71,18.561a5.935,5.935,0,0,1,1.928,1.054,4.382,4.382,0,0,1,1.119,1.376A3.119,3.119,0,0,1,74.4,22.4a1.651,1.651,0,0,1-.447,1.123,1.386,1.386,0,0,1-1.1.5,1.255,1.255,0,0,1-.915-.3,3.918,3.918,0,0,1-.681-.983,4.493,4.493,0,0,0-1.13-1.53,3.293,3.293,0,0,0-2.125-.545,3.606,3.606,0,0,0-2.186.6,1.72,1.72,0,0,0-.83,1.429,1.454,1.454,0,0,0,.282.9,2.464,2.464,0,0,0,.78.646,4.8,4.8,0,0,0,1,.423c.339.1.895.255,1.671.447a26.257,26.257,0,0,1,2.649.76,8.081,8.081,0,0,1,2.018,1,4.162,4.162,0,0,1,1.3,1.492,4.837,4.837,0,0,1,.464,2.213" transform="translate(-12.711 -18.17)" fill="#006ab2"/>
      <path id="Path_75" data-name="Path 75" d="M74.252,20.3v4.95h7.559V20.3a2.315,2.315,0,0,1,.475-1.6,1.61,1.61,0,0,1,1.257-.531,1.665,1.665,0,0,1,1.28.531,2.251,2.251,0,0,1,.488,1.6V33.918a2.27,2.27,0,0,1-.5,1.6,1.631,1.631,0,0,1-1.271.529,1.577,1.577,0,0,1-1.261-.538,2.322,2.322,0,0,1-.472-1.591V28.1H74.252v5.818a2.27,2.27,0,0,1-.5,1.6,1.636,1.636,0,0,1-1.272.529,1.6,1.6,0,0,1-1.268-.538,2.341,2.341,0,0,1-.47-1.591V20.3a2.352,2.352,0,0,1,.47-1.6,1.6,1.6,0,0,1,1.268-.531,1.661,1.661,0,0,1,1.279.531,2.268,2.268,0,0,1,.49,1.6" transform="translate(-5.31 -18.17)" fill="#006ab2"/>
      <path id="Path_76" data-name="Path 76" d="M92.577,33.8l-.827-2.168H84.723L83.9,33.842a7.538,7.538,0,0,1-.827,1.752,1.293,1.293,0,0,1-1.117.452,1.671,1.671,0,0,1-1.169-.475,1.493,1.493,0,0,1-.508-1.1,2.27,2.27,0,0,1,.12-.73c.077-.255.208-.608.387-1.054l4.424-11.228c.126-.314.276-.707.454-1.16a5.913,5.913,0,0,1,.565-1.121,2.281,2.281,0,0,1,.791-.732,2.422,2.422,0,0,1,1.207-.276,2.451,2.451,0,0,1,1.221.276,2.382,2.382,0,0,1,.793.716,5.006,5.006,0,0,1,.506.938c.135.33.312.777.524,1.336L95.786,32.6a5.607,5.607,0,0,1,.531,1.853,1.541,1.541,0,0,1-.5,1.1,1.643,1.643,0,0,1-1.207.5A1.529,1.529,0,0,1,93.9,35.9a1.416,1.416,0,0,1-.5-.4,3.6,3.6,0,0,1-.43-.777c-.152-.353-.287-.66-.395-.929M85.641,29h5.165L88.2,21.866Z" transform="translate(2.25 -18.17)" fill="#006ab2"/>
      <path id="Path_77" data-name="Path 77" d="M105.986,21.228h-3.82v12.55a2.3,2.3,0,0,1-.484,1.614,1.771,1.771,0,0,1-2.518-.007,2.294,2.294,0,0,1-.488-1.607V21.228H94.853a1.908,1.908,0,0,1-1.331-.4,1.347,1.347,0,0,1-.438-1.046,1.329,1.329,0,0,1,.454-1.062,2.005,2.005,0,0,1,1.315-.384h11.133a1.993,1.993,0,0,1,1.352.393,1.38,1.38,0,0,1,.441,1.053,1.326,1.326,0,0,1-.448,1.046,1.957,1.957,0,0,1-1.345.4" transform="translate(12.413 -18.038)" fill="#ec421e"/>
      <path id="Path_78" data-name="Path 78" d="M113.827,21.039h-7.889V25.28H113.2a1.76,1.76,0,0,1,1.2.36,1.353,1.353,0,0,1,0,1.906,1.649,1.649,0,0,1-1.2.377h-7.265v4.919H114.1a1.746,1.746,0,0,1,1.241.386,1.3,1.3,0,0,1,.42,1.013,1.278,1.278,0,0,1-.42,1,1.745,1.745,0,0,1-1.241.384h-9.519a1.832,1.832,0,0,1-2.145-2.15v-13a2.85,2.85,0,0,1,.224-1.223,1.385,1.385,0,0,1,.7-.7,2.937,2.937,0,0,1,1.218-.222h9.247a1.814,1.814,0,0,1,1.245.377,1.372,1.372,0,0,1,0,1.951,1.77,1.77,0,0,1-1.245.378" transform="translate(19.832 -18.041)" fill="#ec421e"/>
      <path id="Path_79" data-name="Path 79" d="M126.45,30.3a4.555,4.555,0,0,1-.411,1.783,6.486,6.486,0,0,1-3.5,3.389,8.052,8.052,0,0,1-3.163.576,10.872,10.872,0,0,1-2.486-.26,6.68,6.68,0,0,1-3.716-2.252A8.558,8.558,0,0,1,112,31.712a9.579,9.579,0,0,1-.721-2.152,11.662,11.662,0,0,1-.242-2.428,10.7,10.7,0,0,1,.606-3.736,8.013,8.013,0,0,1,1.738-2.828,7.652,7.652,0,0,1,2.656-1.783,8.613,8.613,0,0,1,3.242-.615,8.077,8.077,0,0,1,3.739.838,6.684,6.684,0,0,1,2.509,2.068,4.073,4.073,0,0,1,.873,2.337,1.526,1.526,0,0,1-.423,1.06,1.342,1.342,0,0,1-1.026.461,1.433,1.433,0,0,1-1.008-.323,4.251,4.251,0,0,1-.748-1.1,5.352,5.352,0,0,0-1.61-1.921,3.962,3.962,0,0,0-2.283-.638,4.144,4.144,0,0,0-3.436,1.646,7.373,7.373,0,0,0-1.282,4.657,8.66,8.66,0,0,0,.569,3.35,4.228,4.228,0,0,0,1.6,2,4.454,4.454,0,0,0,2.43.66,4.261,4.261,0,0,0,2.554-.753,4.469,4.469,0,0,0,1.573-2.19,3.56,3.56,0,0,1,.558-1.115,1.237,1.237,0,0,1,1.06-.438,1.461,1.461,0,0,1,1.072.445,1.434,1.434,0,0,1,.448,1.085" transform="translate(26.656 -18.17)" fill="#ec421e"/>
      <path id="Path_80" data-name="Path 80" d="M124.9,20.3v4.95h7.564V20.3a2.315,2.315,0,0,1,.475-1.6,1.61,1.61,0,0,1,1.257-.531,1.677,1.677,0,0,1,1.282.531,2.26,2.26,0,0,1,.486,1.6V33.918a2.262,2.262,0,0,1-.5,1.6,1.636,1.636,0,0,1-1.271.529,1.577,1.577,0,0,1-1.261-.538,2.322,2.322,0,0,1-.472-1.591V28.1H124.9v5.818a2.269,2.269,0,0,1-.491,1.6,1.643,1.643,0,0,1-1.275.529,1.594,1.594,0,0,1-1.264-.538,2.341,2.341,0,0,1-.47-1.591V20.3a2.352,2.352,0,0,1,.466-1.6,1.6,1.6,0,0,1,1.268-.531,1.661,1.661,0,0,1,1.279.531,2.251,2.251,0,0,1,.488,1.6" transform="translate(34.877 -18.17)" fill="#ec421e"/>
      <path id="Path_81" data-name="Path 81" d="M138.449,20.3V32.872h7.1a1.875,1.875,0,0,1,1.3.416,1.344,1.344,0,0,1,.454,1.037,1.3,1.3,0,0,1-.45,1.031,1.889,1.889,0,0,1-1.307.4h-8.457a1.83,1.83,0,0,1-2.145-2.143V20.3a2.316,2.316,0,0,1,.477-1.6,1.613,1.613,0,0,1,1.257-.531,1.661,1.661,0,0,1,1.279.531,2.251,2.251,0,0,1,.49,1.6" transform="translate(45.625 -18.17)" fill="#ec421e"/>
      <path id="Path_82" data-name="Path 82" d="M153.4,21.228h-3.82v12.55a2.3,2.3,0,0,1-.484,1.614,1.629,1.629,0,0,1-1.248.522,1.651,1.651,0,0,1-1.27-.529,2.294,2.294,0,0,1-.488-1.607V21.228H142.27a1.894,1.894,0,0,1-1.329-.4,1.47,1.47,0,0,1,.014-2.107,2.009,2.009,0,0,1,1.315-.384H153.4a1.989,1.989,0,0,1,1.352.393,1.382,1.382,0,0,1,.443,1.053,1.327,1.327,0,0,1-.45,1.046,1.954,1.954,0,0,1-1.345.4" transform="translate(50.034 -18.038)" fill="#ec421e"/>
      <path id="Path_83" data-name="Path 83" d="M152.011,18.337h4.562a12.228,12.228,0,0,1,3.059.33,5.617,5.617,0,0,1,2.31,1.23q2.7,2.319,2.7,7.032a13.687,13.687,0,0,1-.273,2.844,8.264,8.264,0,0,1-.839,2.321,7.178,7.178,0,0,1-1.447,1.845,6.341,6.341,0,0,1-1.523,1,7.059,7.059,0,0,1-1.775.531,12.865,12.865,0,0,1-2.139.152h-4.562a2.767,2.767,0,0,1-1.436-.291,1.348,1.348,0,0,1-.638-.816,5.438,5.438,0,0,1-.142-1.359V20.482a2.238,2.238,0,0,1,.506-1.637,2.252,2.252,0,0,1,1.637-.508m1.358,2.767V32.84h2.654c.581,0,1.035-.016,1.365-.047a4.361,4.361,0,0,0,1.029-.239,2.653,2.653,0,0,0,.918-.529q1.759-1.488,1.758-5.118a7.6,7.6,0,0,0-.773-3.836,3.4,3.4,0,0,0-1.9-1.614,9.174,9.174,0,0,0-2.735-.353Z" transform="translate(57.463 -18.038)" fill="#ec421e"/>
    </g>
    <g id="Group_124" data-name="Group 124" transform="translate(363.119 25)">
      <rect id="Rectangle_51" data-name="Rectangle 51" width="4.853" height="23.151" transform="translate(25.52 33.484)" fill="#0061ad"/>
      <rect id="Rectangle_52" data-name="Rectangle 52" width="4.855" height="13.442" transform="translate(17.116 33.487)" fill="#009adb"/>
      <rect id="Rectangle_53" data-name="Rectangle 53" width="4.855" height="13.442" transform="translate(17.116 7.718)" fill="#1f9b8c"/>
      <rect id="Rectangle_54" data-name="Rectangle 54" width="13.445" height="4.854" transform="translate(17.116 24.771)" fill="#771c7a"/>
      <rect id="Rectangle_55" data-name="Rectangle 55" width="13.443" height="4.854" transform="translate(42.2 24.771)" fill="#f6b500"/>
      <rect id="Rectangle_56" data-name="Rectangle 56" width="21.536" height="4.855" transform="translate(25.517 15.996)" fill="#ec421e"/>
      <rect id="Rectangle_57" data-name="Rectangle 57" width="4.853" height="13.195" transform="translate(25.52)" fill="#0061ad"/>
      <rect id="Rectangle_58" data-name="Rectangle 58" width="4.856" height="13.444" transform="translate(33.733 24.771)" fill="#47a736"/>
      <rect id="Rectangle_59" data-name="Rectangle 59" width="4.853" height="13.444" transform="translate(8.667 24.771)" fill="#002d7a"/>
      <rect id="Rectangle_60" data-name="Rectangle 60" width="4.856" height="5.479" transform="translate(33.733 41.45)" fill="#9d0d1b"/>
      <rect id="Rectangle_61" data-name="Rectangle 61" width="4.856" height="5.478" transform="translate(33.733 7.718)" fill="#050605"/>
      <rect id="Rectangle_62" data-name="Rectangle 62" width="4.853" height="5.477" transform="translate(42.2 33.484)" fill="#2a8334"/>
      <rect id="Rectangle_63" data-name="Rectangle 63" width="4.855" height="5.478" transform="translate(0 24.771)" fill="#dc0073"/>
      <rect id="Rectangle_64" data-name="Rectangle 64" width="4.853" height="5.478" transform="translate(8.667 15.682)" fill="#4b217b"/>
      <rect id="Rectangle_65" data-name="Rectangle 65" width="5.519" height="5.478" transform="translate(50.123 15.682)" fill="#1f9b8c"/>
      <rect id="Rectangle_66" data-name="Rectangle 66" width="4.853" height="5.479" transform="translate(8.667 41.45)" fill="#009adb"/>
    </g>
  </g>
</svg>
