<svg xmlns="http://www.w3.org/2000/svg" width="35.931" height="35.93" viewBox="0 0 35.931 35.93">
  <g id="Page-1" transform="translate(-952.069 -1674.548)">
    <g id="_003---Call" data-name="003---Call">
      <path id="Shape" d="M966.948,1695.6a14.505,14.505,0,0,1-4.378-8.233,1.231,1.231,0,0,1,.354-1.031l2.775-2.774a1.239,1.239,0,0,0,.175-1.533l-4.419-6.861a1.239,1.239,0,0,0-1.605-.452l-7.094,3.341a1.232,1.232,0,0,0-.681,1.231c.372,3.531,1.911,12.211,10.441,20.742s17.209,10.069,20.742,10.441a1.234,1.234,0,0,0,1.231-.682l3.341-7.093a1.24,1.24,0,0,0-.45-1.6l-6.861-4.417a1.237,1.237,0,0,0-1.533.173l-2.774,2.775a1.231,1.231,0,0,1-1.031.354,14.506,14.506,0,0,1-8.233-4.378Z" fill="#fff"/>
      <path id="Shape-2" data-name="Shape" d="M980.566,1693.752a1.239,1.239,0,0,1-1.239-1.239,9.3,9.3,0,0,0-9.292-9.292,1.239,1.239,0,1,1,0-2.478,11.782,11.782,0,0,1,11.77,11.77A1.239,1.239,0,0,1,980.566,1693.752Z" fill="#fff"/>
      <path id="Shape-3" data-name="Shape" d="M986.761,1693.752a1.239,1.239,0,0,1-1.239-1.239,15.5,15.5,0,0,0-15.487-15.487,1.239,1.239,0,0,1,0-2.478A17.985,17.985,0,0,1,988,1692.513a1.239,1.239,0,0,1-1.239,1.239Z" fill="#fff"/>
    </g>
  </g>
</svg>
